HIERARCHY
ROOT Hips
{
	OFFSET 0.000000 0.000000 0.000000
	CHANNELS 6 Xposition Yposition Zposition Xrotation Yrotation Zrotation
	JOINT LeftUpLeg_virtual
	{
		OFFSET 0.000000 0.000000 0.000000
		CHANNELS 3 Xrotation Yrotation Zrotation
		JOINT LeftUpLeg
		{
			OFFSET 11.394100 -6.187798 -0.413800
			CHANNELS 3 Xrotation Yrotation Zrotation
			JOINT LeftLeg
			{
				OFFSET 0.430247 -32.302673 3.732800
				CHANNELS 3 Xrotation Yrotation Zrotation
				JOINT LeftFoot
				{
					OFFSET -0.430247 -48.264931 -6.423300
					CHANNELS 3 Xrotation Yrotation Zrotation
					JOINT LeftToeBase
					{
						OFFSET 4.230900 -16.068199 23.438400
						CHANNELS 3 Xrotation Yrotation Zrotation
						JOINT LeftToe_End
						{
							OFFSET 4.510700 0.695400 19.974600
							CHANNELS 3 Xrotation Yrotation Zrotation
							End Site
							{
								OFFSET 0 0 0
							}
						}
					}
				}
			}
		}
	}
	JOINT RightUpLeg_virtual
	{
		OFFSET 0.000000 0.000000 0.000000
		CHANNELS 3 Xrotation Yrotation Zrotation
		JOINT RightUpLeg
		{
			OFFSET -11.333700 -6.187798 -0.413800
			CHANNELS 3 Xrotation Yrotation Zrotation
			JOINT RightLeg
			{
				OFFSET -0.430392 -32.302628 3.733000
				CHANNELS 3 Xrotation Yrotation Zrotation
				JOINT RightFoot
				{
					OFFSET 0.430392 -48.264973 -6.423500
					CHANNELS 3 Xrotation Yrotation Zrotation
					JOINT RightToeBase
					{
						OFFSET -4.230900 -16.068199 23.438400
						CHANNELS 3 Xrotation Yrotation Zrotation
						JOINT RightToe_End
						{
							OFFSET -4.510700 0.695400 19.974600
							CHANNELS 3 Xrotation Yrotation Zrotation
							End Site
							{
								OFFSET 0 0 0
							}
						}
					}
				}
			}
		}
	}
	JOINT Spine_virtual
	{
		OFFSET 0.000000 0.000000 0.000000
		CHANNELS 3 Xrotation Yrotation Zrotation
		JOINT Spine
		{
			OFFSET -0.002400 12.777504 0.315300
			CHANNELS 3 Xrotation Yrotation Zrotation
			JOINT Spine1
			{
				OFFSET -0.002067 5.816869 0.032633
				CHANNELS 3 Xrotation Yrotation Zrotation
				JOINT Spine1_split
				{
					OFFSET -0.002067 5.816869 0.032633
					CHANNELS 3 Xrotation Yrotation Zrotation
					JOINT Spine2
					{
						OFFSET -0.002067 5.816869 0.032633
						CHANNELS 3 Xrotation Yrotation Zrotation
						JOINT Neck_virtual
						{
							OFFSET 0.000000 0.000000 0.000000
							CHANNELS 3 Xrotation Yrotation Zrotation
							JOINT Neck
							{
								OFFSET -0.003700 21.199493 -0.826900
								CHANNELS 3 Xrotation Yrotation Zrotation
								JOINT Head
								{
									OFFSET 0.000000 20.442200 4.834800
									CHANNELS 3 Xrotation Yrotation Zrotation
									JOINT HeadTop_End
									{
										OFFSET 0.000000 34.668396 4.968400
										CHANNELS 3 Xrotation Yrotation Zrotation
										End Site
										{
											OFFSET 0 0 0
										}
									}
								}
							}
						}
						JOINT LeftShoulder_virtual
						{
							OFFSET 0.000000 0.000000 0.000000
							CHANNELS 3 Xrotation Yrotation Zrotation
							JOINT LeftShoulder
							{
								OFFSET 3.288150 8.794197 -1.372250
								CHANNELS 3 Xrotation Yrotation Zrotation
								JOINT LeftShoulder_split
								{
									OFFSET 3.288150 8.794197 -1.372250
									CHANNELS 3 Xrotation Yrotation Zrotation
									JOINT LeftArm
									{
										OFFSET 11.953299 -2.279007 -0.146200
										CHANNELS 3 Xrotation Yrotation Zrotation
										JOINT LeftForeArm
										{
											OFFSET 18.448900 0.000000 0.000000
											CHANNELS 3 Xrotation Yrotation Zrotation
											JOINT LeftHand
											{
												OFFSET 29.527798 0.000000 0.000000
												CHANNELS 3 Xrotation Yrotation Zrotation
												End Site
												{
													OFFSET 0 0 0
												}
											}
										}
									}
								}
							}
						}
						JOINT RightShoulder_virtual
						{
							OFFSET 0.000000 0.000000 0.000000
							CHANNELS 3 Xrotation Yrotation Zrotation
							JOINT RightShoulder
							{
								OFFSET -3.249400 8.794197 -1.372250
								CHANNELS 3 Xrotation Yrotation Zrotation
								JOINT RightShoulder_split
								{
									OFFSET -3.249400 8.794197 -1.372250
									CHANNELS 3 Xrotation Yrotation Zrotation
									JOINT RightArm
									{
										OFFSET -11.953299 -2.279007 -0.146200
										CHANNELS 3 Xrotation Yrotation Zrotation
										JOINT RightForeArm
										{
											OFFSET -18.448900 0.000000 0.000000
											CHANNELS 3 Xrotation Yrotation Zrotation
											JOINT RightHand
											{
												OFFSET -29.527802 0.000000 0.000000
												CHANNELS 3 Xrotation Yrotation Zrotation
												End Site
												{
													OFFSET 0 0 0
												}
											}
										}
									}
								}
							}
						}
					}
				}
			}
		}
	}
}
MOTION
Frames: 7
Frame Time: 0.03333333
-12.087739 73.948967 -4.875660 0.000000 0.000000 0.000000 -5.839375 1.641941 0.023177 -72.112003 -9.359465 8.172501 67.422382 -20.362324 -10.642050 7.126695 -4.455288 -3.516899 -0.341492 1.265647 0.800599 0.000000 0.000000 0.000000 -5.839375 1.641941 0.023177 -25.613459 -1.221752 -2.449126 91.599845 -14.619730 -7.343256 -32.876938 -1.907544 20.994458 -36.439339 -0.856009 -1.524470 0.000000 0.000000 0.000000 -5.839375 1.641941 0.023177 10.217164 0.844190 -1.427472 6.501258 0.729002 -3.378759 0.000000 0.000000 0.000000 0.000000 0.000000 0.000000 6.523718 0.729117 -3.378282 9.843670 -5.617183 10.551907 3.206787 -2.376967 -8.937633 0.000000 0.000000 0.000000 6.523718 0.729117 -3.378282 -7.792790 -34.654577 -7.359488 0.000000 0.000000 0.000000 -44.353206 -10.873690 -37.210649 -98.512372 -63.863293 -100.923545 0.000000 0.000000 0.000000 6.523718 0.729117 -3.378282 -10.485881 37.534871 14.174110 0.000000 0.000000 0.000000 -47.959345 3.085231 36.191721 -96.820397 58.006051 104.472764 0.000000 0.000000 0.000000 
-12.643559 77.102119 -4.425945 0.000000 0.000000 0.000000 -2.898831 4.332216 0.322006 -69.850876 -8.771303 5.303822 61.221554 -19.841775 -9.248594 7.799542 -4.056945 -4.352913 -0.337108 1.263190 0.812090 0.000000 0.000000 0.000000 -2.898831 4.332216 0.322006 -22.877165 -3.906920 -2.030781 83.437359 -14.539009 -7.573922 -34.232806 -0.988310 18.243736 -32.417580 -0.294224 -1.847551 0.000000 0.000000 0.000000 -2.898831 4.332216 0.322006 8.954478 0.585098 -1.752070 3.966864 0.230936 -3.978306 0.000000 0.000000 0.000000 0.000000 0.000000 0.000000 3.989347 0.231038 -3.977844 5.038292 -8.338510 11.033145 -0.460162 -3.911050 -10.648854 0.000000 0.000000 0.000000 3.989347 0.231038 -3.977844 -8.173989 -31.527989 -8.252499 0.000000 0.000000 0.000000 -31.588559 -14.766826 -24.997727 -124.594508 -59.639696 -127.258691 0.000000 0.000000 0.000000 3.989347 0.231038 -3.977844 -8.947958 32.923243 10.353825 0.000000 0.000000 0.000000 -34.168421 8.238679 31.408867 -129.897221 61.687680 135.132547 0.000000 0.000000 0.000000 
-13.174177 81.044441 -3.787613 0.000000 0.000000 0.000000 1.151490 7.431045 0.749270 -66.826605 -8.300305 1.698015 52.584674 -19.199385 -7.282158 9.074195 -3.541218 -5.650312 -0.333051 1.259874 0.822562 0.000000 0.000000 0.000000 1.151490 7.431045 0.749270 -21.124595 -5.576391 -1.049341 74.008296 -15.036501 -7.995539 -33.240529 -0.163759 16.209538 -29.760285 -0.175531 -1.740589 0.000000 0.000000 0.000000 1.151490 7.431045 0.749270 7.510879 0.218452 -2.090928 1.064140 -0.427329 -4.603813 0.000000 0.000000 0.000000 0.000000 0.000000 0.000000 1.086616 -0.427256 -4.603350 -5.694804 -10.493380 7.608347 -0.030810 -6.025159 -10.033725 0.000000 0.000000 0.000000 1.086616 -0.427256 -4.603350 -8.676804 -25.765731 -10.075466 0.000000 0.000000 0.000000 -18.326603 -15.006475 -10.670904 -143.139960 -54.309559 -144.303838 0.000000 0.000000 0.000000 1.086616 -0.427256 -4.603350 -7.681962 25.388554 6.444246 0.000000 0.000000 0.000000 -12.655761 14.347784 25.486349 -174.509380 58.206401 170.828359 0.000000 0.000000 0.000000 
-13.705010 87.904396 -1.981380 0.000000 0.000000 0.000000 6.228558 10.472092 1.326723 -57.964879 -8.790276 -2.889100 36.383502 -18.100886 -3.370699 11.355359 -2.164768 -7.776375 -0.338886 1.253683 0.806882 0.000000 0.000000 0.000000 6.228558 10.472092 1.326723 -16.295143 -7.167722 0.515035 56.691284 -16.262327 -9.860227 -28.114309 1.039361 14.920635 -27.792902 0.023253 -1.681046 0.000000 0.000000 0.000000 6.228558 10.472092 1.326723 6.030095 -0.118240 -2.392958 -1.909143 -0.850893 -5.060079 0.000000 0.000000 0.000000 0.000000 0.000000 0.000000 -1.886654 -0.850849 -5.059594 -22.734684 -9.234639 4.477811 7.334333 -6.985444 -9.210166 0.000000 0.000000 0.000000 -1.886654 -0.850849 -5.059594 -7.298172 -17.415328 -8.034951 0.000000 0.000000 0.000000 -14.064191 -8.494675 -2.706167 -146.039936 -74.946259 -142.967853 0.000000 0.000000 0.000000 -1.886654 -0.850849 -5.059594 -7.063744 17.810823 3.824991 0.000000 0.000000 0.000000 -0.653493 7.660497 19.417002 140.339924 70.312071 -146.961328 0.000000 0.000000 0.000000 
-13.895947 93.448914 0.877537 0.000000 0.000000 0.000000 8.551345 10.946509 1.094964 -47.153194 -9.424372 -2.965873 21.394133 -18.516472 -1.316721 14.509548 -1.505052 -9.278027 -1.014197 1.233983 -0.175363 0.000000 0.000000 0.000000 8.551345 10.946509 1.094964 -9.324439 -9.043935 3.076291 40.139468 -17.685453 -13.537696 -20.459951 3.282356 15.682656 -29.703834 0.809533 -2.065182 0.000000 0.000000 0.000000 8.551345 10.946509 1.094964 4.935016 0.190749 -2.331181 -4.077860 0.059075 -4.730980 0.000000 0.000000 0.000000 0.000000 0.000000 0.000000 -4.055390 0.059094 -4.730493 -39.776382 -6.165030 2.111066 6.335150 -5.449746 -7.254296 0.000000 0.000000 0.000000 -4.055390 0.059094 -4.730493 -6.234566 -9.589493 -4.102898 0.000000 0.000000 0.000000 -16.932468 -1.577848 0.230451 18.865674 -71.495429 19.254544 0.000000 0.000000 0.000000 -4.055390 0.059094 -4.730493 -6.827207 11.482308 1.525858 0.000000 0.000000 0.000000 1.768699 -5.447515 15.892506 58.267750 68.104786 -58.040325 0.000000 0.000000 0.000000 
-13.474960 96.391380 3.297821 0.000000 0.000000 0.000000 8.510212 8.024445 -0.562667 -41.612019 -6.813329 1.414562 17.182090 -19.968994 -2.406414 15.218309 -0.828472 -8.497105 -2.237531 1.190831 0.303011 0.000000 0.000000 0.000000 8.510212 8.024445 -0.562667 -7.546510 -11.194280 1.400211 36.413262 -14.164020 -10.729296 -13.041819 4.335600 14.854476 -35.439085 1.389175 -1.772304 0.000000 0.000000 0.000000 8.510212 8.024445 -0.562667 4.703456 0.754440 -1.726674 -4.526450 1.331908 -3.228477 0.000000 0.000000 0.000000 0.000000 0.000000 0.000000 -4.503989 1.331915 -3.227988 -54.900453 -2.790376 0.662442 14.522007 -3.578711 -6.999373 0.000000 0.000000 0.000000 -4.503989 1.331915 -3.227988 -6.136153 -1.923156 -0.288157 0.000000 0.000000 0.000000 -22.618617 3.712878 2.278974 26.288671 -37.020643 14.152492 0.000000 0.000000 0.000000 -4.503989 1.331915 -3.227988 -6.866816 6.010464 -0.591214 0.000000 0.000000 0.000000 0.149007 -19.940681 11.679593 28.572220 43.904757 -17.531808 0.000000 0.000000 0.000000 
-12.576213 97.708206 5.112595 0.000000 0.000000 0.000000 8.420308 3.211400 -3.320247 -41.173319 -4.249137 7.762917 19.795878 -20.434384 -4.630400 12.800174 -0.720249 -6.881851 -3.015336 1.077068 2.306871 0.000000 0.000000 0.000000 8.420308 3.211400 -3.320247 -10.841803 -13.504555 -3.398166 40.209143 -8.315340 -4.691758 -4.966630 5.336007 13.037877 -42.730603 1.411089 0.188582 0.000000 0.000000 0.000000 8.420308 3.211400 -3.320247 4.755519 1.458526 -0.842674 -4.442806 2.830392 -1.009443 0.000000 0.000000 0.000000 0.000000 0.000000 0.000000 -4.420354 2.830419 -1.008959 -66.418576 -0.466141 0.308076 21.848952 -1.255922 -8.686857 0.000000 0.000000 0.000000 -4.420354 2.830419 -1.008959 -6.875597 6.127643 3.516702 0.000000 0.000000 0.000000 -28.356464 6.793795 3.845493 35.046626 -12.233106 2.641560 0.000000 0.000000 0.000000 -4.420354 2.830419 -1.008959 -7.217529 0.715010 -2.125559 0.000000 0.000000 0.000000 -1.585986 -32.412673 6.133364 23.011829 20.970897 -1.675098 0.000000 0.000000 0.000000 
